<?xml version="1.0" standalone="no"?>
<!DOCTYPE svg PUBLIC "-//W3C//DTD SVG 20010904//EN"
 "http://www.w3.org/TR/2001/REC-SVG-20010904/DTD/svg10.dtd">
<svg version="1.0" xmlns="http://www.w3.org/2000/svg"
 width="224.000000pt" height="224.000000pt" viewBox="0 0 224.000000 224.000000"
 preserveAspectRatio="xMidYMid meet">
<metadata>
Created by potrace 1.11, written by Peter Selinger 2001-2013
</metadata>
<g transform="translate(0.000000,224.000000) scale(0.100000,-0.100000)"
fill="#000000" stroke="none">
<path d="M1752 2000 c-52 -10 -117 -25 -145 -33 -29 -9 -97 -21 -152 -28 -101
-11 -247 -37 -735 -128 -146 -27 -310 -53 -366 -59 -55 -5 -115 -17 -132 -26
-29 -15 -32 -21 -32 -60 0 -25 8 -73 17 -108 13 -49 16 -106 16 -258 -1 -217
25 -1041 33 -1049 3 -3 391 -7 863 -9 l859 -4 9 78 c4 44 7 324 6 624 l-2 545
-33 7 c-74 15 -355 28 -614 28 -261 0 -343 9 -216 25 63 7 184 36 250 59 24 9
40 11 37 6 -9 -14 49 -12 120 4 233 53 300 66 340 66 63 0 113 22 121 54 3 14
1 47 -4 73 -6 27 -14 71 -17 98 -16 118 -42 129 -223 95z m58 -99 c0 -28 -127
-130 -163 -131 -4 0 1 17 12 38 20 38 65 85 91 95 25 9 60 8 60 -2z m-210 -45
c0 -28 -141 -128 -157 -112 -9 9 49 93 76 109 33 21 81 22 81 3z m290 -41 c0
-27 -4 -35 -19 -35 -16 0 -17 4 -7 35 6 19 14 35 18 35 5 0 8 -16 8 -35z
m-504 -3 c-8 -15 -22 -34 -32 -43 -22 -19 -124 -72 -124 -64 0 2 14 27 30 54
31 49 76 80 118 81 21 0 22 -1 8 -28z m-196 -24 c0 -20 -74 -83 -118 -100 -23
-9 -42 -14 -42 -12 0 21 47 89 73 104 35 22 87 27 87 8z m-210 -31 c0 -25 -30
-55 -91 -91 -34 -20 -64 -35 -66 -32 -7 7 33 79 54 98 36 33 103 49 103 25z
m-210 -41 c0 -27 -120 -116 -156 -116 -13 0 40 81 66 104 34 28 90 36 90 12z
m-200 -26 c0 -20 -66 -83 -113 -106 -27 -14 -51 -23 -53 -21 -3 3 9 25 26 50
16 25 30 49 30 55 0 5 24 14 53 19 28 6 53 11 55 12 1 0 2 -3 2 -9z m-245 -47
c-4 -10 -10 -26 -12 -35 -8 -28 -23 -21 -23 11 0 27 10 38 34 40 4 1 5 -7 1
-16z m209 -216 c16 -12 16 -14 -5 -41 -22 -28 -104 -86 -122 -86 -18 0 0 32
48 84 28 30 53 55 56 55 3 1 13 -5 23 -12z m210 0 c16 -12 16 -14 -5 -41 -22
-28 -104 -86 -122 -86 -18 0 -1 30 48 84 28 31 53 56 56 56 3 0 13 -6 23 -13z
m276 4 c0 -19 -71 -70 -120 -86 -28 -9 -53 -15 -56 -13 -8 9 48 74 79 91 33
18 97 23 97 8z m210 -1 c0 -21 -51 -58 -111 -80 -33 -13 -62 -21 -64 -18 -9 9
46 73 78 91 35 19 97 23 97 7z m209 -7 c-8 -10 -23 -25 -34 -35 -22 -19 -133
-63 -140 -56 -2 2 8 21 23 42 31 45 70 65 126 66 35 0 37 -1 25 -17z m205 -8
c-16 -24 -94 -67 -148 -81 -26 -6 -27 -5 -17 12 35 62 84 94 144 94 l37 0 -16
-25z m210 0 c-16 -24 -94 -67 -148 -81 -26 -6 -27 -5 -17 12 35 62 84 94 144
94 l37 0 -16 -25z m-1504 -26 c0 -3 -6 -12 -14 -18 -19 -16 -28 1 -20 35 7 26
8 26 20 9 8 -11 14 -22 14 -26z m1578 -65 c-2 -21 -9 -30 -25 -32 -26 -4 -30
10 -8 28 8 7 15 22 15 33 0 15 3 18 11 10 6 -6 9 -23 7 -39z m-14 -149 c10
-51 13 -851 4 -861 -3 -3 -73 0 -154 5 -391 27 -585 33 -601 19 -10 -8 -17 -8
-25 0 -18 18 -282 15 -333 -3 -49 -18 -45 -18 -45 0 0 14 -25 15 -203 9 l-204
-7 -6 39 c-4 21 -7 215 -7 431 l0 391 113 7 c114 7 1143 23 1342 21 l110 -1 9
-50z"/>
<path d="M880 1158 c-190 -5 -347 -11 -349 -14 -2 -2 -4 -60 -4 -130 0 -97 3
-128 14 -135 8 -5 64 -9 125 -9 91 0 113 -3 118 -15 4 -12 15 -14 46 -9 27 4
40 3 40 -5 0 -8 -43 -11 -142 -11 -79 0 -160 -5 -181 -11 -37 -10 -38 -11 -35
-52 l3 -42 580 4 c324 2 588 7 598 13 9 5 17 17 17 28 0 27 -23 36 -110 44
-86 8 -110 14 -110 26 0 5 48 11 107 12 l108 3 15 30 c19 40 25 159 10 229
l-11 56 -247 -2 c-136 -1 -402 -5 -592 -10z m-93 -89 c52 -6 105 -14 118 -19
14 -5 26 -5 34 3 8 8 28 7 76 -2 57 -10 71 -10 98 4 20 10 34 12 40 6 7 -7 95
-8 239 -4 l228 6 0 -36 c0 -21 0 -40 0 -44 1 -17 -106 -23 -550 -31 -335 -7
-467 -6 -472 2 -4 6 -8 37 -8 69 l0 57 50 0 c28 0 94 -5 147 -11z m693 -242
c0 -13 -63 -3 -67 10 -3 7 3 10 15 6 11 -2 23 1 27 7 6 9 10 9 16 -1 5 -8 9
-18 9 -22z"/>
<path d="M1260 699 c-47 -3 -200 -6 -340 -8 -140 -1 -290 -6 -333 -12 l-78
-11 3 -36 c5 -65 74 -76 278 -46 85 12 165 14 415 9 171 -3 353 -2 405 2 93 8
95 9 98 34 3 24 -1 27 -35 34 -21 4 -85 10 -144 15 -58 4 -115 12 -126 18 -15
8 -23 8 -32 -1 -8 -8 -14 -8 -19 -2 -4 6 -40 8 -92 4z"/>
<path d="M556 545 c-56 -20 -73 -57 -41 -89 26 -25 76 -28 195 -12 63 9 140
16 172 16 56 0 58 1 58 26 0 19 -8 28 -35 40 -19 7 -45 14 -59 14 -14 0 -28 5
-31 10 -9 15 -213 12 -259 -5z"/>
</g>
</svg>
